<?xml version="1.0" encoding="UTF-8"?>
<svg width="22.117mm" height="26.273mm" version="1.1" viewBox="0 0 22.117 26.273" xmlns="http://www.w3.org/2000/svg" xmlns:cc="http://creativecommons.org/ns#" xmlns:dc="http://purl.org/dc/elements/1.1/" xmlns:rdf="http://www.w3.org/1999/02/22-rdf-syntax-ns#">
 <metadata>
  <rdf:RDF>
   <cc:Work rdf:about="">
    <dc:format>image/svg+xml</dc:format>
    <dc:type rdf:resource="http://purl.org/dc/dcmitype/StillImage"/>
    <dc:title/>
   </cc:Work>
  </rdf:RDF>
 </metadata>
 <g transform="translate(-95.531 -122.18)">
  <g transform="matrix(.35278 0 0 -.35278 113 129.3)">
   <path d="m0 0h-0.432c-1.05-8.187-8.059-14.536-16.527-14.536-8.467 0-15.476 6.349-16.526 14.536h-0.304c-1.307 0-2.366 1.06-2.366 2.367 0 1.306 1.059 2.366 2.366 2.366h5.03c1.307 0 2.366-1.06 2.366-2.366 0-1.287-1.027-2.332-2.306-2.364 1.008-5.568 5.887-9.806 11.74-9.806 5.856 0 10.737 4.241 11.742 9.812-1.22 0.096-2.179 1.114-2.179 2.358 0 1.306 1.059 2.366 2.366 2.366h5.03c1.307 0 2.366-1.06 2.366-2.366 0-1.307-1.059-2.367-2.366-2.367m13.163-47.247-4.203 57.481c-0.251 3.431-3.107 6.086-6.547 6.086h-40.809c-3.424 0-6.274-2.632-6.543-6.046l-4.554-57.482c-0.303-3.817 2.714-7.083 6.544-7.083h49.565c3.815 0 6.825 3.239 6.547 7.044" fill="#231916"/>
  </g>
  <g transform="matrix(.35278 0 0 -.35278 99.489 123.12)">
   <path d="m0 0 6.687 2.419c0.436 0.158 0.896 0.238 1.359 0.238h25.965c0.555 0 1.106-0.116 1.615-0.341l5.949-2.628s-42.512 0.312-41.575 0.312" fill="#231916"/>
  </g>
 </g>
</svg>
